<?xml version="1.0" encoding="utf-8"?>
<!-- Generator: Adobe Illustrator 21.0.2, SVG Export Plug-In . SVG Version: 6.00 Build 0)  -->
<svg version="1.1" id="圖層_1" xmlns="http://www.w3.org/2000/svg" xmlns:xlink="http://www.w3.org/1999/xlink" x="0px" y="0px"
	 viewBox="0 0 58 58" style="enable-background:new 0 0 58 58;" xml:space="preserve">
<style type="text/css">
	.st0{fill:#30B0C9;}
	.st1{fill:#FFFFFF;}
</style>
<circle class="st0" cx="29" cy="29" r="29"/>
<path class="st1" d="M46,30.5c0.8,0,1.5-0.7,1.5-1.5s-0.7-1.5-1.5-1.5V30.5z M9.9,27.9c-0.6,0.6-0.6,1.5,0,2.1l9.5,9.5
	c0.6,0.6,1.5,0.6,2.1,0s0.6-1.5,0-2.1L13.1,29l8.5-8.5c0.6-0.6,0.6-1.5,0-2.1s-1.5-0.6-2.1,0L9.9,27.9z M46,27.5H11v3h35V27.5z"/>
</svg>
